<svg id="图层_1" data-name="图层 1" xmlns="http://www.w3.org/2000/svg" xmlns:xlink="http://www.w3.org/1999/xlink" viewBox="0 0 1046.26 186.28"><defs><style>.cls-1{fill:url(#未命名的渐变_3);}.cls-2{fill:url(#未命名的渐变_3-2);}.cls-3{fill:url(#未命名的渐变_3-3);}.cls-4{fill:url(#未命名的渐变_3-4);}.cls-5{fill:url(#未命名的渐变_3-5);}.cls-6{fill:url(#未命名的渐变_3-6);}.cls-7{fill:url(#未命名的渐变_3-7);}.cls-8{fill:url(#未命名的渐变_3-8);}.cls-9{fill:url(#未命名的渐变_3-9);}.cls-10{fill:url(#未命名的渐变_3-10);}.cls-11{fill:url(#未命名的渐变_3-11);}</style><linearGradient id="未命名的渐变_3" x1="992.71" y1="68.08" x2="30.33" y2="72.1" gradientUnits="userSpaceOnUse"><stop offset="0" stop-color="#1a8cff"/><stop offset="1" stop-color="#2626dd"/></linearGradient><linearGradient id="未命名的渐变_3-2" x1="992.71" y1="68.43" x2="30.33" y2="72.46" xlink:href="#未命名的渐变_3"/><linearGradient id="未命名的渐变_3-3" x1="992.71" y1="69.62" x2="30.33" y2="73.64" xlink:href="#未命名的渐变_3"/><linearGradient id="未命名的渐变_3-4" x1="992.77" y1="84" x2="30.39" y2="88.03" xlink:href="#未命名的渐变_3"/><linearGradient id="未命名的渐变_3-5" x1="992.78" y1="85.26" x2="30.4" y2="89.29" xlink:href="#未命名的渐变_3"/><linearGradient id="未命名的渐变_3-6" x1="992.72" y1="70.48" x2="30.34" y2="74.51" xlink:href="#未命名的渐变_3"/><linearGradient id="未命名的渐变_3-7" x1="992.78" y1="86.13" x2="30.4" y2="90.16" xlink:href="#未命名的渐变_3"/><linearGradient id="未命名的渐变_3-8" x1="1024.91" y1="105.23" x2="6.41" y2="109.49" xlink:href="#未命名的渐变_3"/><linearGradient id="未命名的渐变_3-9" x1="992.77" y1="82.39" x2="30.39" y2="86.42" xlink:href="#未命名的渐变_3"/><linearGradient id="未命名的渐变_3-10" x1="992.78" y1="86.83" x2="30.4" y2="90.86" xlink:href="#未命名的渐变_3"/><linearGradient id="未命名的渐变_3-11" x1="992.93" y1="120.72" x2="30.55" y2="124.75" xlink:href="#未命名的渐变_3"/></defs><path class="cls-1" d="M9.82,144.29A9.59,9.59,0,0,1,.11,133L17.22,11.3A13.43,13.43,0,0,1,30.1,0a9.59,9.59,0,0,1,9.71,11.3L22.71,133A13.44,13.44,0,0,1,9.82,144.29Z"/><path class="cls-2" d="M94.5,144.29a9.88,9.88,0,0,1-6.56-2.35L26.64,89a9.72,9.72,0,0,1-3.23-8.22,13.06,13.06,0,0,1,4.52-8.71l78.4-68.74c5-4.41,12.18-4.41,16,0s2.78,11.56-2.25,16L52,78.93l52.22,45.12c4.41,3.8,4.34,10.9-.17,15.84A13.12,13.12,0,0,1,94.5,144.29Z"/><path class="cls-3" d="M491.67,143.48H471.6c-13.7,0-23.29-11.15-21.36-24.85L465.33,11.3A13.43,13.43,0,0,1,478.21,0a9.59,9.59,0,0,1,9.71,11.3L472.83,118.63a1.92,1.92,0,0,0,1.94,2.26h20.07a9.59,9.59,0,0,1,9.71,11.3A13.45,13.45,0,0,1,491.67,143.48Z"/><path class="cls-4" d="M275.07,144.29c-27.24,0-46.22-16.68-43.23-38L241,41.1a13.45,13.45,0,0,1,12.89-11.3,9.59,9.59,0,0,1,9.71,11.3l-9.17,65.22c-1,7.27,8.51,15.38,23.81,15.38s27.11-8.11,28.13-15.38l9.17-65.22a13.45,13.45,0,0,1,12.88-11.3,9.59,9.59,0,0,1,9.71,11.3L329,106.32C326,127.61,302.3,144.29,275.07,144.29Z"/><path class="cls-5" d="M558.31,144.29c-27.23,0-46.22-16.68-43.23-38l5.42-38.54c3-21.3,26.67-38,53.9-38s46.22,16.68,43.23,38l-1.76,12.51c-1.4,9.95-10.64,18.06-20.6,18.06H538.8l-1.13,8c-1,7.27,8.51,15.38,23.81,15.38,12.09,0,21.62-5.12,25.7-10.19s11.39-6.61,16.11-3.16,5.13,10.47,1,15.66C594.17,136.52,576.57,144.29,558.31,144.29ZM542,75.75h51.94l1.12-8c1-7.28-8.5-15.38-23.81-15.38s-27.11,8.1-28.13,15.38Z"/><path class="cls-6" d="M699.07,143.48H679c-13.7,0-23.28-11.15-21.36-24.85L672.73,11.3A13.43,13.43,0,0,1,685.61,0a9.59,9.59,0,0,1,9.71,11.3L680.24,118.63a1.91,1.91,0,0,0,1.93,2.26h20.07a9.59,9.59,0,0,1,9.71,11.3A13.44,13.44,0,0,1,699.07,143.48Z"/><path class="cls-7" d="M766.31,144.29c-27.23,0-46.22-16.68-43.23-38l5.42-38.54c3-21.3,26.67-38,53.9-38s46.22,16.68,43.23,38l-1.76,12.51c-1.4,9.95-10.63,18.06-20.59,18.06H746.8l-1.12,8c-1,7.27,8.5,15.38,23.81,15.38,12.09,0,21.61-5.12,25.7-10.19s11.39-6.61,16.1-3.16,5.14,10.47,1,15.66C802.18,136.52,784.58,144.29,766.31,144.29ZM750,75.75h51.94l1.12-8c1-7.28-8.51-15.38-23.81-15.38s-27.11,8.1-28.13,15.38Z"/><path class="cls-8" d="M403.05,29.8h-38a13.44,13.44,0,0,0-12.88,11.3L339.25,133h0l-5.9,42a9.6,9.6,0,0,0,9.71,11.3A13.45,13.45,0,0,0,356,175l4.31-30.69H387c25.38,0,48.93-20.65,52.49-46l3.16-22.43C446.17,50.45,428.43,29.8,403.05,29.8Zm17,46-3.15,22.43c-1.82,12.93-13.81,23.44-26.73,23.44h-26.7L367.75,91h0l5.42-38.61h26.7C412.79,52.4,421.83,62.91,420,75.83Z"/><path class="cls-9" d="M179.82,27.36c-27.23,0-50.91,16.68-53.9,38l-5.76,41c-3,21.29,16,38,43.23,38s50.91-16.68,53.9-38l5.76-41C226,44,207.05,27.36,179.82,27.36Zm25.7,53.19-46.87,48.34c-2.45,2.52-6.24.53-5.09-2.67,3.06-8.5,7.26-20,10.89-29.95a2.7,2.7,0,0,0-2.52-3.8h-22c-2.49,0-3.59-2.77-1.93-4.85L163.26,56a10.35,10.35,0,0,1,7.93-4h23.7c2.49,0,3.59,2.76,1.93,4.84l-11,13.74c-1.66,2.08-.55,4.85,1.93,4.85h16.07C206.48,75.43,207.5,78.51,205.52,80.55Z"/><path class="cls-10" d="M985.53,144.31c-29.29,0-42.44-13-54.07-24.54s-21.64-21.42-48.34-21.42c-18.23,0-31-4.42-37.9-13.14-4.74-6-6.42-13.76-4.71-21.91,4.32-20.66,24.34-33.5,52.24-33.5,27.1,0,46.18,15.27,43.44,34.75a13.44,13.44,0,0,1-12.88,11.3,9.59,9.59,0,0,1-9.71-11.3c.68-4.84-8.56-12.15-24-12.15-4,0-24.27.6-26.75,12.45a5.72,5.72,0,0,0,1.08,4.94c1.42,1.8,6.44,6,22.38,6,35.15,0,49.62,14.33,62.38,27,11,10.84,19.59,19.39,41.52,19,11.52-.22,25.53-2.42,26.83-11.68.9-6.44-9.56-11.67-23.33-11.67h-.76c-28.45,0-45.63-13.78-42.75-34.28s23.93-34.27,52.38-34.27c27.1,0,46.18,15.27,43.44,34.75a13.43,13.43,0,0,1-12.88,11.3,9.59,9.59,0,0,1-9.71-11.3c.68-4.84-8.55-12.15-24-12.15-12.41,0-25.54,4-26.61,11.67s10.92,11.68,23.33,11.68h.76c28,0,45.58,14.09,42.74,34.27-1.41,10-9.31,33.46-52.16,34.27Z"/><path class="cls-11" d="M877.42,144.29c-27.1,0-46.18-15.26-43.44-34.75a13.45,13.45,0,0,1,12.89-11.3,9.59,9.59,0,0,1,9.7,11.3c-.68,4.84,8.56,12.16,24,12.16,7.94,0,15.65-2,21.16-5.5s12.48-2.31,15.33,2.81.6,12.16-5,15.73C902.36,140.9,890.06,144.29,877.42,144.29Z"/></svg>